<?xml version="1.0" encoding="utf-8"?>
<!-- Generator: Adobe Illustrator 19.1.0, SVG Export Plug-In . SVG Version: 6.00 Build 0)  -->
<svg version="1.1" id="Layer_1" xmlns="http://www.w3.org/2000/svg" xmlns:xlink="http://www.w3.org/1999/xlink" x="0px" y="0px"
	 viewBox="0 0 339.996 170" enable-background="new 0 0 339.996 170" xml:space="preserve">
<g>
	<g>
		<g>
			<path fill="#0099CD" d="M27.93,115.344c8.45,0,11.861,4.989,11.861,8.976c0,2.994-1.888,5.671-4.881,7.139
				c5.092,1.313,7.611,4.986,7.611,9.186c0,4.093-2.205,10.498-12.649,10.498H9.5v-35.798H27.93z M18.421,129.57h7.62
				c3.256,0,4.567-1.998,4.567-3.883c0-1.84-1.311-3.78-4.567-3.78h-7.62V129.57z M18.421,144.582h7.988
				c4.933,0,6.665-1.313,6.665-4.41c0-2.625-2.31-4.042-5.459-4.042h-9.194V144.582z"/>
			<polygon fill="#0099CD" points="52.76,115.352 61.74,115.352 61.74,143.246 81.498,143.246 81.498,151.142 52.76,151.142 			"/>
			<path fill="#0099CD" d="M124.008,148.588v-33.236h-8.977v27.733l-3.197,0.704c-1.624,0.242-4.666,0.484-7.136,0.484
				c-4.037,0-6.448-2.05-6.448-7.954v-20.968h-8.978v22.954c0,10.185,7.231,13.44,15.426,13.44c4.58,0,13.042-1.289,16.114-2.25
				L124.008,148.588z"/>
			<path fill="#0099CD" d="M210.594,114.748c10.363,0,20.153,7.591,20.153,18.501c0,10.904-9.79,18.498-20.153,18.498
				c-10.363,0-20.093-7.594-20.093-18.498C190.501,122.339,200.231,114.748,210.594,114.748 M210.594,122.82
				c-5.423,0-10.872,4.16-10.872,10.429c0,6.264,5.449,10.421,10.872,10.421c5.484,0,10.873-4.157,10.873-10.421
				C221.467,126.979,216.078,122.82,210.594,122.82"/>
			<polygon fill="#0099CD" points="282.7,151.142 275.747,151.142 250.065,128.202 250.065,151.142 241.141,151.142 
				241.141,115.344 248.774,115.344 273.776,137.233 273.776,115.344 282.7,115.344 			"/>
			<polygon fill="#0099CD" points="312.753,151.142 303.835,151.142 303.835,123.245 291.636,123.245 291.636,115.352 
				324.952,115.352 324.952,123.245 312.753,123.245 			"/>
			<polygon fill="#0099CD" points="172.689,115.348 180.457,115.348 180.457,151.146 171.533,151.146 171.533,128.512 
				158.927,139.744 157.563,139.744 144.957,128.512 144.957,151.146 136.034,151.146 136.034,115.348 143.802,115.348 
				158.245,128.627 			"/>
		</g>
		<polygon fill="#0099CD" points="138.173,87.316 124.678,87.316 187.662,32.553 210.599,52.496 249.955,18.252 329.313,87.316 
			315.841,87.316 249.955,29.974 184.063,87.316 170.574,87.316 203.873,58.323 187.639,44.275 		"/>
	</g>
	<g>
		<path fill="#0099CD" d="M317.969,145.01h5.115v0.78h-2.134v5.352h-0.881v-5.352h-2.1V145.01z"/>
		<path fill="#0099CD" d="M329.68,145.019h0.82v6.124h-0.882v-4.765l-1.883,2.367h-0.162l-1.904-2.367v4.765h-0.877v-6.124h0.83
			l2.034,2.515L329.68,145.019z"/>
	</g>
</g>
</svg>
